<?xml version="1.0" encoding="UTF-8" standalone="no"?>
<svg
   xmlns:dc="http://purl.org/dc/elements/1.1/"
   xmlns:cc="http://creativecommons.org/ns#"
   xmlns:rdf="http://www.w3.org/1999/02/22-rdf-syntax-ns#"
   xmlns:svg="http://www.w3.org/2000/svg"
   xmlns="http://www.w3.org/2000/svg"
   xmlns:xlink="http://www.w3.org/1999/xlink"
   xmlns:sodipodi="http://sodipodi.sourceforge.net/DTD/sodipodi-0.dtd"
   xmlns:inkscape="http://www.inkscape.org/namespaces/inkscape"
   id="svg2"
   height="450"
   viewBox="0 0 399.99515 449.99006"
   width="400"
   version="1.1"
   inkscape:version="0.91 r13725"
   sodipodi:docname="instructions_logo.svg">
  <metadata
     id="metadata4229">
    <rdf:RDF>
      <cc:Work
         rdf:about="">
        <dc:format>image/svg+xml</dc:format>
        <dc:type
           rdf:resource="http://purl.org/dc/dcmitype/StillImage" />
        <dc:title></dc:title>
      </cc:Work>
    </rdf:RDF>
  </metadata>
  <defs
     id="defs4227" />
  <sodipodi:namedview
     pagecolor="#000000"
     bordercolor="#666666"
     borderopacity="1"
     objecttolerance="10"
     gridtolerance="10"
     guidetolerance="10"
     inkscape:pageopacity="1"
     inkscape:pageshadow="2"
     inkscape:window-width="1920"
     inkscape:window-height="1176"
     id="namedview4225"
     showgrid="true"
     inkscape:zoom="2.2666667"
     inkscape:cx="200"
     inkscape:cy="225"
     inkscape:window-x="1280"
     inkscape:window-y="24"
     inkscape:window-maximized="1"
     inkscape:current-layer="layer1">
    <inkscape:grid
       type="xygrid"
       id="grid4152"
       empspacing="20" />
  </sodipodi:namedview>
  <g
     id="layer1"
     transform="matrix(0.181,0,0,0.18018,-0.87157,358.75689)">
    <g
       id="g4241"
       transform="matrix(3.6882285,0,0,3.2615252,265.43057,-1388.8024)"
       style="stroke:#ffffff;stroke-opacity:1">
      <path
         id="path3382"
         d="m 80.847,565.39 c 13.568,2.301 27.825,0.35307 40.278,-5.5032 12.453,-5.85627 23.047,-15.595 29.928,-27.512 7.8968,-13.677 10.811,-29.917 9.6544,-45.667 -1.1569,-15.75 -6.2327,-31.043 -13.38,-45.125 -12.3,-24.22 -30.5,-44.86 -48.876,-64.86 -18.375,-20 -37.275,-39.85 -51.356,-63.07 -28.487,-46.99 -34.885,-106.63 -17.56,-158.78 17.325,-52.14 57.914,-95.947 108.36,-117.73 30.774,-13.288 64.806,-18.598 98.261,-16.508 36.494,2.2807 72.41,13.34 103.87,31.984 25.016,14.043 44.05,38.371 51.662,66.031 6.4994,23.618 4.86,48.578 4.6707,73.073 -0.1893,24.495 1.4092,50.037 13.45,71.369 5.972,10.581 14.269,19.652 20.943,29.804 3.3372,5.076 6.2802,10.453 8.2133,16.212 1.9331,5.759 2.8332,11.927 2.0559,17.952 -0.64678,5.0133 -2.4651,9.8846 -5.3537,14.033 -2.8886,4.1481 -6.8514,7.5586 -11.432,9.697 -6.3306,2.9557 -13.493,3.405 -20.452,4.0243 -6.9591,0.61932 -14.162,1.544 -20.078,5.2612 -5.823,3.6591 -9.8208,9.7359 -12.128,16.214 -2.3076,6.4786 -3.0721,13.395 -3.5984,20.252 -0.52634,6.8571 -0.83583,13.764 -2.2902,20.486 -1.4543,6.7218 -4.1448,13.339 -8.8405,18.364 -3.2131,3.4381 -7.263,6.0196 -11.559,7.9407 -4.2958,1.9211 -8.8476,3.206 -13.422,4.3083 -9.1497,2.2047 -18.648,3.773 -26.852,8.3856 -6.5678,3.6928 -12.035,9.2517 -15.841,15.754 -3.8064,6.5026 -5.9681,13.926 -6.5062,21.442 -1.0762,15.031 4.3568,30.089 13.261,42.247 11.363,15.515 28.467,26.725 47.228,30.952"
         style="fill:none;stroke:#ffffff;stroke-width:28;stroke-linecap:round;stroke-linejoin:round;stroke-opacity:1"
         inkscape:connector-curvature="0" />
      <g
         id="g4217"
         transform="matrix(0.17903,0.38393,-0.38614,0.18006,331.86,-37.939)"
         style="stroke:#ffffff;stroke-opacity:1">
        <path
           id="path4213"
           d="m 568.48,751.1 c -146.51,131.03 -286.82,2.0635 -286.82,2.0635 l 0,0"
           style="fill:none;stroke:#ffffff;stroke-width:47.19499969;stroke-linecap:round;stroke-linejoin:round;stroke-opacity:1"
           inkscape:connector-curvature="0" />
        <path
           id="path4215"
           d="m 553.01,728.4 27.857,42.301 16.508,-42.301 z"
           style="fill:none;stroke:#ffffff;stroke-width:47.19499969;stroke-linecap:round;stroke-linejoin:round;stroke-opacity:1"
           inkscape:connector-curvature="0" />
      </g>
      <g
         id="g9"
         style="stroke:#ffffff;stroke-width:20.04999924;stroke-opacity:1">
        <use
           id="use4231"
           xlink:href="#g4217"
           transform="matrix(-0.15988,0.98714,-0.98714,-0.15988,451.49,45.292)"
           height="100%"
           width="100%"
           y="0"
           x="0"
           style="stroke:#ffffff;stroke-opacity:1" />
        <use
           id="use4233"
           xlink:href="#g4217"
           transform="matrix(0.0087265,-0.99996,0.99996,0.0087265,-34.174,251.06)"
           height="100%"
           width="100%"
           y="0"
           x="0"
           style="stroke:#ffffff;stroke-width:20.04999924;stroke-opacity:1" />
        <use
           id="use4235"
           xlink:href="#use4233"
           transform="matrix(1,0,0,-1,-41.269,426.84)"
           height="100%"
           width="100%"
           y="0"
           x="0"
           style="stroke:#ffffff;stroke-width:20.04999924;stroke-opacity:1" />
        <use
           id="use4237"
           xlink:href="#use4235"
           transform="matrix(-0.77494,0.63203,-0.63203,-0.77494,542.46,302.05)"
           height="100%"
           width="100%"
           y="0"
           x="0"
           style="stroke:#ffffff;stroke-opacity:1" />
        <use
           id="use4239"
           xlink:href="#use4233"
           transform="matrix(0.86603,-0.5,0.5,0.86603,33.775,214.24)"
           height="100%"
           width="100%"
           y="0"
           x="0"
           style="stroke:#ffffff;stroke-opacity:1" />
      </g>
    </g>
  </g>
</svg>
