<?xml version="1.0" encoding="UTF-8" standalone="no"?>
<svg
   xmlns:dc="http://purl.org/dc/elements/1.1/"
   xmlns:cc="http://creativecommons.org/ns#"
   xmlns:rdf="http://www.w3.org/1999/02/22-rdf-syntax-ns#"
   xmlns:svg="http://www.w3.org/2000/svg"
   xmlns="http://www.w3.org/2000/svg"
   xmlns:sodipodi="http://sodipodi.sourceforge.net/DTD/sodipodi-0.dtd"
   xmlns:inkscape="http://www.inkscape.org/namespaces/inkscape"
   id="svg2"
   height="450"
   viewBox="0 0 399.99515 449.99006"
   width="400"
   version="1.1"
   inkscape:version="0.91 r13725"
   sodipodi:docname="instructions_associations.svg">
  <metadata
     id="metadata4229">
    <rdf:RDF>
      <cc:Work
         rdf:about="">
        <dc:format>image/svg+xml</dc:format>
        <dc:type
           rdf:resource="http://purl.org/dc/dcmitype/StillImage" />
        <dc:title />
      </cc:Work>
    </rdf:RDF>
  </metadata>
  <defs
     id="defs4227" />
  <sodipodi:namedview
     pagecolor="#000000"
     bordercolor="#666666"
     borderopacity="1"
     objecttolerance="10"
     gridtolerance="10"
     guidetolerance="10"
     inkscape:pageopacity="1"
     inkscape:pageshadow="2"
     inkscape:window-width="1920"
     inkscape:window-height="1176"
     id="namedview4225"
     showgrid="true"
     inkscape:zoom="2.2666667"
     inkscape:cx="200"
     inkscape:cy="225"
     inkscape:window-x="1280"
     inkscape:window-y="24"
     inkscape:window-maximized="1"
     inkscape:current-layer="layer1"
     showguides="false">
    <inkscape:grid
       type="xygrid"
       id="grid4152"
       empspacing="20" />
  </sodipodi:namedview>
  <g
     id="layer1"
     transform="matrix(0.181,0,0,0.18018,-0.87157,358.75689)">
    <path
       inkscape:connector-curvature="0"
       style="fill:none;stroke:#ffffff;stroke-width:43.9271698;stroke-linecap:round;stroke-linejoin:round;stroke-opacity:1"
       d="m 1866.8193,444.56579 c -22.6354,3.39464 -46.4204,0.52088 -67.1957,-8.1188 -20.7753,-8.63968 -38.4492,-23.00711 -49.9288,-40.58811 -13.1742,-20.1775 -18.036,-44.13617 -16.1064,-67.37195 1.93,-23.23578 10.398,-45.79735 22.3218,-66.57235 20.5201,-35.73146 50.8831,-66.18139 81.5398,-95.68714 30.6549,-29.50575 62.1858,-58.79021 85.6771,-93.046383 47.5248,-69.3237618 58.1986,-157.309904 29.2953,-234.246147 -28.9033,-76.92149 -96.6178,-141.54939 -180.7768,-173.68558 -51.3402,-19.60364 -108.1158,-27.43742 -163.9287,-24.35406 -60.8828,3.3647 -120.8015,19.68036 -173.2861,47.18558 -41.7342,20.71746 -73.4886,56.60826 -86.1877,97.41472 -10.8429,34.84334 -8.1079,71.66652 -7.7921,107.80368 0.3158,36.137169 -2.351,73.818963 -22.4386,105.2897972 -9.9631,15.6100128 -23.8049,28.9923468 -34.9391,43.9694638 -5.5675,7.488558 -10.4774,15.421183 -13.7023,23.917366 -3.225,8.49617 -4.7267,17.59575 -3.4299,26.48436 1.0791,7.396053 4.1126,14.582623 8.9316,20.702703 4.819,6.11965 11.4302,11.15111 19.072,14.30587 10.5613,4.3605 22.5104,5.02335 34.12,5.937 11.6099,0.91367 23.6265,2.27784 33.4961,7.76178 9.7146,5.39822 16.3841,14.36325 20.2331,23.92031 3.8498,9.5578 5.1252,19.76147 6.0033,29.87752 0.878,10.11619 1.3944,20.30586 3.8207,30.22274 2.4262,9.91659 6.9148,19.67886 14.7486,27.09218 5.3604,5.07219 12.1168,8.88064 19.2839,11.71481 7.1666,2.83418 14.7604,4.72978 22.3919,6.35599 15.2644,3.25256 31.1104,5.56626 44.7971,12.37117 10.957,5.44794 20.078,13.64891 26.4275,23.24167 6.3502,9.59321 9.9566,20.54486 10.8543,31.63312 1.7954,22.17504 -7.2684,44.38992 -22.1233,62.32647 -18.9569,22.88908 -47.4914,39.42705 -78.7904,45.6631"
       id="path3382" />
    <ellipse
       style="fill:none;fill-opacity:1;stroke:#ffffff;stroke-width:16.61205634;stroke-linecap:round;stroke-linejoin:round;stroke-miterlimit:4;stroke-dasharray:none;stroke-opacity:1"
       id="path4233"
       cx="544.70135"
       cy="-146.52254"
       rx="287.9104"
       ry="286.43387" />
    <text
       xml:space="preserve"
       style="font-style:normal;font-weight:normal;font-size:221.49407959px;line-height:125%;font-family:Sans;letter-spacing:0px;word-spacing:0px;fill:#ffffff;fill-opacity:1;stroke:none;stroke-width:1px;stroke-linecap:butt;stroke-linejoin:miter;stroke-opacity:1"
       x="319.15231"
       y="-76.213303"
       id="text4235"
       sodipodi:linespacing="125%"
       transform="scale(0.99773225,1.0022729)"><tspan
         sodipodi:role="line"
         id="tspan4237"
         x="319.15231"
         y="-76.213303">Tree</tspan></text>
    <ellipse
       style="fill:none;fill-opacity:1;stroke:#ffffff;stroke-width:16.61205673;stroke-linecap:round;stroke-linejoin:round;stroke-miterlimit:4;stroke-dasharray:none;stroke-opacity:1"
       id="path4254"
       cx="1399.8258"
       cy="-455.90439"
       rx="55.247948"
       ry="53.867046" />
    <path
       style="fill:none;fill-opacity:1;stroke:#ffffff;stroke-width:16.65013695;stroke-linecap:round;stroke-linejoin:round;stroke-miterlimit:4;stroke-dasharray:none;stroke-opacity:1"
       id="path4293"
       sodipodi:type="arc"
       sodipodi:cx="93.758865"
       sodipodi:cy="-1695.7314"
       sodipodi:rx="132.29539"
       sodipodi:ry="139.66595"
       sodipodi:start="0"
       sodipodi:end="2.3055799"
       sodipodi:open="true"
       d="m 226.05426,-1695.7314 a 132.29539,139.66595 0 0 1 -78.5915,127.6407 132.29539,139.66595 0 0 1 -142.3982448,-24.012"
       transform="matrix(0.5448427,0.83853827,-0.88673107,0.46228564,0,0)" />
    <path
       style="fill:none;fill-opacity:1;stroke:#ffffff;stroke-width:16.61205673;stroke-linecap:round;stroke-linejoin:round;stroke-miterlimit:4;stroke-dasharray:none;stroke-opacity:1"
       id="path4295"
       sodipodi:type="arc"
       sodipodi:cx="1726.3285"
       sodipodi:cy="-676.50293"
       sodipodi:rx="142.24123"
       sodipodi:ry="109.48"
       sodipodi:start="0.43284165"
       sodipodi:end="2.3317599"
       sodipodi:open="true"
       d="m 1855.4519,-630.58131 a 142.24123,109.48 0 0 1 -102.4701,61.61919 142.24123,109.48 0 0 1 -124.7456,-28.25847" />
    <path
       style="fill:none;fill-opacity:1;stroke:#ffffff;stroke-width:16.61205673;stroke-linecap:round;stroke-linejoin:round;stroke-miterlimit:4;stroke-dasharray:none;stroke-opacity:1"
       id="path4299"
       sodipodi:type="arc"
       sodipodi:cx="1525.4347"
       sodipodi:cy="-1063.4583"
       sodipodi:rx="211.07896"
       sodipodi:ry="111.3676"
       sodipodi:start="2.5516714"
       sodipodi:end="5.7421332"
       sodipodi:open="true"
       d="m 1350.0313,-1001.5049 a 211.07896,111.3676 0 0 1 -12.4458,-112.744 211.07896,111.3676 0 0 1 180.7281,-60.5136 211.07896,111.3676 0 0 1 188.0511,53.9457" />
    <path
       style="fill:none;fill-opacity:1;stroke:#ffffff;stroke-width:16.61205673;stroke-linecap:round;stroke-linejoin:round;stroke-miterlimit:4;stroke-dasharray:none;stroke-opacity:1"
       id="path4301"
       sodipodi:type="arc"
       sodipodi:cx="1819.3999"
       sodipodi:cy="-1010.6058"
       sodipodi:rx="191.05983"
       sodipodi:ry="135.90622"
       sodipodi:start="4.1032691"
       sodipodi:end="0"
       d="m 1710.0858,-1122.0695 a 191.05983,135.90622 0 0 1 197.6836,-9.0318 191.05983,135.90622 0 0 1 102.6903,120.4955"
       sodipodi:open="true" />
    <path
       style="fill:none;fill-opacity:1;stroke:#ffffff;stroke-width:16.61205673;stroke-linecap:round;stroke-linejoin:round;stroke-miterlimit:4;stroke-dasharray:none;stroke-opacity:1"
       id="path4303"
       sodipodi:type="arc"
       sodipodi:cx="1888.2377"
       sodipodi:cy="-763.33203"
       sodipodi:rx="143.29486"
       sodipodi:ry="128.35588"
       sodipodi:start="0"
       sodipodi:end="1.7889625"
       sodipodi:open="true"
       d="m 2031.5325,-763.33203 a 143.29486,128.35588 0 0 1 -53.6032,100.10276 143.29486,128.35588 0 0 1 -120.7063,25.21057" />
    <path
       style="fill:none;fill-opacity:1;stroke:#ffffff;stroke-width:16.61205673;stroke-linecap:round;stroke-linejoin:round;stroke-miterlimit:4;stroke-dasharray:none;stroke-opacity:1"
       id="path4305"
       sodipodi:type="arc"
       sodipodi:cx="1990.0894"
       sodipodi:cy="-885.71051"
       sodipodi:rx="142.84476"
       sodipodi:ry="124.49401"
       sodipodi:start="4.855506"
       sodipodi:end="1.2810717"
       sodipodi:open="true"
       d="m 2010.4632,-1008.9317 a 142.84476,124.49401 0 0 1 122.0873,114.10348 142.84476,124.49401 0 0 1 -101.6521,128.42313" />
    <ellipse
       style="fill:none;fill-opacity:1;stroke:#ffffff;stroke-width:16.61205673;stroke-linecap:round;stroke-linejoin:round;stroke-miterlimit:4;stroke-dasharray:none;stroke-opacity:1"
       id="path4316"
       cx="1275.9243"
       cy="-620.7702"
       rx="68.268684"
       ry="68.165726" />
    <text
       xml:space="preserve"
       style="font-style:normal;font-weight:normal;font-size:221.49407959px;line-height:125%;font-family:Sans;letter-spacing:0px;word-spacing:0px;fill:#ffffff;fill-opacity:1;stroke:none;stroke-width:1px;stroke-linecap:butt;stroke-linejoin:miter;stroke-opacity:1"
       x="1400.5647"
       y="-796.88342"
       id="text4318"
       sodipodi:linespacing="125%"
       transform="scale(0.99773224,1.0022729)"><tspan
         sodipodi:role="line"
         id="tspan4320"
         x="1400.5647"
         y="-796.88342">Trunk</tspan></text>
    <path
       style="fill:none;fill-rule:evenodd;stroke:#000000;stroke-width:5.53735209px;stroke-linecap:butt;stroke-linejoin:miter;stroke-opacity:1"
       d="m 1264.9559,-108.21706 -376.17344,-17.13954 0,4.89704"
       id="path4322"
       inkscape:connector-curvature="0" />
    <path
       style="fill:none;fill-rule:evenodd;stroke:#ffffff;stroke-width:16.61205673;stroke-linecap:butt;stroke-linejoin:miter;stroke-miterlimit:4;stroke-dasharray:33.22411267, 66.44822535;stroke-dashoffset:0;stroke-opacity:1"
       d="M 1235.7071,-83.732049 857.09614,-122.90807"
       id="path4324"
       inkscape:connector-curvature="0" />
    <path
       style="fill:none;fill-opacity:1;stroke:#ffffff;stroke-width:16.61205673;stroke-linecap:round;stroke-linejoin:round;stroke-miterlimit:4;stroke-dasharray:none;stroke-dashoffset:0;stroke-opacity:1"
       id="path4406"
       sodipodi:type="arc"
       sodipodi:cx="1451.8241"
       sodipodi:cy="-878.271"
       sodipodi:rx="164.13287"
       sodipodi:ry="149.76456"
       sodipodi:start="1.8360864"
       sodipodi:end="4.0701078"
       d="m 1408.7902,-733.74573 a 164.13287,149.76456 0 0 1 -118.1917,-116.46219 164.13287,149.76456 0 0 1 62.9061,-147.98425"
       sodipodi:open="true" />
  </g>
</svg>
