<?xml version="1.0" encoding="UTF-8" standalone="no"?>
<!-- Created with Inkscape (http://www.inkscape.org/) -->

<svg
   xmlns:dc="http://purl.org/dc/elements/1.1/"
   xmlns:cc="http://creativecommons.org/ns#"
   xmlns:rdf="http://www.w3.org/1999/02/22-rdf-syntax-ns#"
   xmlns:svg="http://www.w3.org/2000/svg"
   xmlns="http://www.w3.org/2000/svg"
   xmlns:sodipodi="http://sodipodi.sourceforge.net/DTD/sodipodi-0.dtd"
   xmlns:inkscape="http://www.inkscape.org/namespaces/inkscape"
   width="200"
   height="200"
   viewBox="0 0 200 200"
   id="svg7476"
   version="1.1"
   inkscape:version="0.91 r13725"
   sodipodi:docname="nf_2.svg">
  <defs
     id="defs7478" />
  <sodipodi:namedview
     id="base"
     pagecolor="#ffffff"
     bordercolor="#666666"
     borderopacity="1.0"
     inkscape:pageopacity="0.0"
     inkscape:pageshadow="2"
     inkscape:zoom="2.8"
     inkscape:cx="38.282975"
     inkscape:cy="96.868017"
     inkscape:document-units="px"
     inkscape:current-layer="layer1"
     showgrid="true"
     units="px"
     inkscape:window-width="1366"
     inkscape:window-height="719"
     inkscape:window-x="0"
     inkscape:window-y="25"
     inkscape:window-maximized="1"
     inkscape:snap-bbox="true"
     inkscape:bbox-nodes="true">
    <inkscape:grid
       spacingx="5"
       spacingy="5"
       type="xygrid"
       id="grid8024" />
  </sodipodi:namedview>
  <metadata
     id="metadata7481">
    <rdf:RDF>
      <cc:Work
         rdf:about="">
        <dc:format>image/svg+xml</dc:format>
        <dc:type
           rdf:resource="http://purl.org/dc/dcmitype/StillImage" />
        <dc:title></dc:title>
      </cc:Work>
    </rdf:RDF>
  </metadata>
  <g
     inkscape:label="Layer 1"
     inkscape:groupmode="layer"
     id="layer1"
     transform="translate(0,-852.36216)">
    <path
       style="fill:#000000;fill-opacity:1;stroke-width:4.5;stroke-linecap:round;stroke-miterlimit:4;stroke-dasharray:none"
       d="M 88.75 0 L 66.25 22.222656 L 55 11.111328 L 43.75 33.333984 L 32.5 11.111328 L 32.5 52.429688 A 90 88.888914 0 0 0 10 111.11133 A 90 88.888914 0 0 0 100 200 A 90 88.888914 0 0 0 190 111.11133 A 90 88.888914 0 0 0 167.5 52.484375 L 167.5 11.111328 L 156.25 33.333984 L 145 11.111328 L 133.75 22.222656 L 111.25 0 L 100 22.222656 L 88.75 0 z M 100 70 C 110 70 120 80 120 80 L 170 80 C 170 80 175 80 175 85 C 175 90 170 90 170 90 C 170 90 170 125 140 125 C 110 125 110 90 110 90 C 110 90 110 80 100 80 C 90 80 90 90 90 90 C 90 90 90 125 60 125 C 30 125 30 90 30 90 C 30 90 25 90 25 85 C 25 80 30 80 30 80 L 80 80 C 80 80 90 70 100 70 z M 145.02539 143.32422 A 6.6006599 6.6006599 0 0 1 150.40625 153.78516 C 131.62044 180.62206 106.64888 185.5304 87.712891 182.7832 C 68.776902 180.036 54.857422 170.45703 54.857422 170.45703 A 6.6006599 6.6006599 0 1 1 62.285156 159.54492 C 62.285156 159.54492 74.079125 167.46595 89.607422 169.71875 C 105.13572 171.97155 123.37956 169.37998 139.59375 146.2168 A 6.6006599 6.6006599 0 0 1 145.02539 143.32422 z "
       transform="translate(0,852.36216)"
       id="path9456" />
  </g>
</svg>
