<?xml version="1.0" encoding="UTF-8" standalone="no"?>
<!-- Created with Inkscape (http://www.inkscape.org/) -->
<svg id="svg2" xmlns:rdf="http://www.w3.org/1999/02/22-rdf-syntax-ns#" xmlns="http://www.w3.org/2000/svg" height="500" width="500" version="1.1" xmlns:cc="http://creativecommons.org/ns#" xmlns:dc="http://purl.org/dc/elements/1.1/" viewBox="0 0 499.99999 499.99998">
 <metadata id="metadata7">
  <rdf:RDF>
   <cc:Work rdf:about="">
    <dc:format>image/svg+xml</dc:format>
    <dc:type rdf:resource="http://purl.org/dc/dcmitype/StillImage"/>
    <dc:title/>
   </cc:Work>
  </rdf:RDF>
 </metadata>
 <g id="layer1" fill-rule="evenodd" transform="translate(0 -552.36)" fill="#000000">
  <path id="path10910" style="color-rendering:auto;text-decoration-color:#000000;color:#000000;isolation:auto;mix-blend-mode:normal;shape-rendering:auto;solid-color:#000000;block-progression:tb;text-decoration-line:none;image-rendering:auto;white-space:normal;text-indent:0;text-transform:none;text-decoration-style:solid" d="m160.74 757.48c-23.063-0.10758-43.125 0.39905-57.283 0.91016l1.1543 31.98c27.648-0.9981 78.702-1.9515 129.04 1.8008 50.337 3.7523 100.54 13.635 122.14 28.033 15.244 10.163 25.113 21.652 29.121 32.416s3.603 21.153-4.668 34.932c-5.8504 9.7462-16.107 16.416-31.273 20.691-15.167 4.2753-34.565 5.5781-54.715 4.7559-40.3-1.6445-83.228-11.437-105.8-16.643-39.287-9.0608-92.321-28.858-135.99-52.07l-15.02 28.258c46.428 24.676 100.84 45.08 143.82 54.994 22.569 5.2052 67.212 15.621 111.69 17.436 22.238 0.90744 44.531-0.24596 64.701-5.9316 20.17-5.6857 38.898-16.481 50.027-35.021 12.341-20.558 14.438-43.185 7.2207-62.566-7.2169-19.382-22.3-35.17-41.357-47.875-33.055-22.037-85.186-29.42-137.51-33.32-26.162-1.9502-52.226-2.6717-75.289-2.7793z"/>
  <path id="path6801" d="m137.67 774.3 35.23-41.507-126.61 45.122 129.24 34.999-37.869-38.614z" stroke-width="0"/>
  <path id="path10912" style="color-rendering:auto;text-decoration-color:#000000;color:#000000;isolation:auto;mix-blend-mode:normal;shape-rendering:auto;solid-color:#000000;block-progression:tb;text-decoration-line:none;image-rendering:auto;white-space:normal;text-indent:0;text-transform:none;text-decoration-style:solid" d="m61.557 592.75-28.17 15.184c40.42 74.993 110.08 106.03 182.51 112.85 72.428 6.8191 148.89-8.7572 211.06-24.953l-8.0664-30.967c-60.74 15.82-134.29 30.25-199.99 24.06-65.71-6.19-122.31-31.16-157.34-96.17z"/>
  <path id="path6809" d="m392.54 686.8-26.874 47.309 117.72-71.75-136.65-3.3151 45.805 27.756z" stroke-width="0"/>
  <path id="path12764" style="color-rendering:auto;text-decoration-color:#000000;color:#000000;isolation:auto;mix-blend-mode:normal;shape-rendering:auto;solid-color:#000000;block-progression:tb;text-decoration-line:none;image-rendering:auto;white-space:normal;text-indent:0;text-transform:none;text-decoration-style:solid" d="m272.65 574.74-31.365 6.3418c8.7798 43.422 19.833 110.5 20.51 174.33 0.67652 63.832-10.306 123.47-38.018 152.57-9.1532 9.6125-32.673 25.793-58.43 40.703s-54.215 29.37-75.389 39.143l13.408 29.057c22.161-10.228 51.187-24.977 78.014-40.506s50.991-31.02 65.57-46.33c38.842-40.791 47.555-107.72 46.842-174.98-0.7128-67.255-12.134-135.78-21.143-180.33z"/>
  <path id="path6793" d="m129.02 987.55 18.8-49.8-106.1 89.15 138.34-21-51.04-18.35z" stroke-width="0"/>
 </g>
</svg>
