<?xml version="1.0" encoding="UTF-8" standalone="no"?>
<!-- Created with Inkscape (http://www.inkscape.org/) -->
<svg id="svg2" xmlns:rdf="http://www.w3.org/1999/02/22-rdf-syntax-ns#" xmlns="http://www.w3.org/2000/svg" height="500" width="500" version="1.1" xmlns:cc="http://creativecommons.org/ns#" xmlns:dc="http://purl.org/dc/elements/1.1/" viewBox="0 0 499.99999 499.99998">
 <metadata id="metadata7">
  <rdf:RDF>
   <cc:Work rdf:about="">
    <dc:format>image/svg+xml</dc:format>
    <dc:type rdf:resource="http://purl.org/dc/dcmitype/StillImage"/>
    <dc:title/>
   </cc:Work>
  </rdf:RDF>
 </metadata>
 <g id="layer1" fill-rule="evenodd" transform="translate(0 -552.36)" fill="#000000">
  <path id="path5138" style="color-rendering:auto;text-decoration-color:#000000;color:#000000;isolation:auto;mix-blend-mode:normal;shape-rendering:auto;solid-color:#000000;block-progression:tb;text-decoration-line:none;image-rendering:auto;white-space:normal;text-indent:0;text-transform:none;text-decoration-style:solid" d="m243.33 590.68c-15.086 0.043-29.369 1.305-41.844 4.4434-31.363 7.8905-68.961 28.058-100.06 46.277-31.109 18.22-55.18 34.68-55.18 34.68l18.197 26.609s23.213-15.87 53.27-33.477c30.056-17.606 67.492-36.757 91.637-42.832 22.243-5.596 68.316-2.5502 106.74 3.0957 38.428 5.6459 70.076 13.006 70.076 13.006l7.3086-31.398s-32.801-7.6401-72.699-13.502c-24.936-3.6636-52.308-6.978-77.451-6.9062z"/>
  <path id="path5945" d="m357.15 618.8-43.709 28.354 132.35-6.8536-115.85-67.053 27.205 45.553z" stroke-width="0"/>
  <path id="path5140" style="color-rendering:auto;text-decoration-color:#000000;color:#000000;isolation:auto;mix-blend-mode:normal;shape-rendering:auto;solid-color:#000000;block-progression:tb;text-decoration-line:none;image-rendering:auto;white-space:normal;text-indent:0;text-transform:none;text-decoration-style:solid" d="m398.73 721.93s-26.563 15.124-60.414 32.148-75.427 35.874-102.09 42.793c-26.659 6.9187-73.211 10.929-112.08 12.771-38.873 1.8426-70.453 1.7988-70.453 1.7988l-0.04687 32.236s32.304 0.049 72.027-1.834 86.475-5.4176 118.66-13.77c32.181-8.3519 73.819-27.768 108.47-45.195 34.652-17.427 61.881-32.938 61.881-32.938l-15.951-28.012z"/>
  <path id="path5937" d="m379.71 750.85-13.877 48.203 94.459-91.928-131.17 30.502 50.588 13.223z" stroke-width="0"/>
  <path id="path5142" style="color-rendering:auto;text-decoration-color:#000000;color:#000000;isolation:auto;mix-blend-mode:normal;shape-rendering:auto;solid-color:#000000;block-progression:tb;text-decoration-line:none;image-rendering:auto;white-space:normal;text-indent:0;text-transform:none;text-decoration-style:solid" d="m185.62 853.74c-20.632 0.0638-42.253 1.25-62.24 2.6777-39.975 2.8554-72.77 7.0859-72.77 7.0859l4.1211 31.973s31.976-4.1207 70.945-6.9043 85.579-3.8165 110.2 0.89258c24.62 4.7091 62.955 21.902 93.787 37.984s54.678 30.811 54.678 30.811l16.945-27.424s-24.766-15.304-56.715-31.969-70.569-34.93-102.64-41.064c-16.035-3.067-35.68-4.1263-56.312-4.0625z"/>
  <path id="path5923" d="m366.25 927.97-50.719 12.797 129.09 38.941-90.35-105.93 11.978 54.187z" stroke-width="0"/>
 </g>
</svg>
