<?xml version="1.0" encoding="UTF-8" standalone="no"?>
<!-- Created with Inkscape (http://www.inkscape.org/) -->
<svg id="svg2" xmlns:rdf="http://www.w3.org/1999/02/22-rdf-syntax-ns#" xmlns="http://www.w3.org/2000/svg" height="500" width="500" version="1.1" xmlns:cc="http://creativecommons.org/ns#" xmlns:dc="http://purl.org/dc/elements/1.1/" viewBox="0 0 499.99999 499.99998">
 <metadata id="metadata7">
  <rdf:RDF>
   <cc:Work rdf:about="">
    <dc:format>image/svg+xml</dc:format>
    <dc:type rdf:resource="http://purl.org/dc/dcmitype/StillImage"/>
    <dc:title/>
   </cc:Work>
  </rdf:RDF>
 </metadata>
 <g id="layer1" fill-rule="evenodd" transform="translate(0 -552.36)" fill="#000000">
  <path id="path5138" style="color-rendering:auto;text-decoration-color:#000000;color:#000000;isolation:auto;mix-blend-mode:normal;shape-rendering:auto;solid-color:#000000;block-progression:tb;text-decoration-line:none;image-rendering:auto;white-space:normal;text-indent:0;text-transform:none;text-decoration-style:solid" d="m127.86 613.07c-9.796-0.23025-19.491-0.0956-28.791 0.17968-37.202 1.1012-67.969 5.8945-67.969 5.8945l4.9492 31.855s29.006-4.4923 63.973-5.5273 76.003 2.8444 94.631 13.586c9.3732 5.4048 28.688 20.44 50.355 39.078s46.366 41.13 69.607 62.791c46.482 43.322 87.119 83.289 87.119 83.289l22.604-22.982s-40.883-40.214-87.744-83.889c-23.43-21.838-48.359-44.549-70.562-63.648-22.204-19.099-41.004-34.334-55.277-42.564-23.217-13.388-53.506-17.372-82.895-18.062z"/>
  <path id="path6671" d="m391.72 810.56-51.845 0.41902 117.19 62.244-65.773-113.21 0.42975 50.549z" stroke-width="0"/>
  <path id="path5140" style="color-rendering:auto;text-decoration-color:#000000;color:#000000;isolation:auto;mix-blend-mode:normal;shape-rendering:auto;solid-color:#000000;block-progression:tb;text-decoration-line:none;image-rendering:auto;white-space:normal;text-indent:0;text-transform:none;text-decoration-style:solid" d="m397.15 617.78s-24.683 30.811-57.131 67.078-73.17 78.088-101.93 98.264c-18.021 12.643-63.226 18.29-102.47 17.715-39.249-0.57492-72.57-5.3848-72.57-5.3848l-4.6211 31.904s35.103 5.1033 76.719 5.7129 89.716-1.288 121.46-23.557c33.892-23.777 74.362-66.185 107.44-103.16 33.082-36.975 58.266-68.42 58.266-68.42l-25.16-20.152z"/>
  <path id="path6657" d="m390.22 651.7 5.7466 51.659 52.083-123.37-109.84 77.416 52.01-5.7078z" stroke-width="0"/>
  <path id="path8898" style="color-rendering:auto;text-decoration-color:#000000;color:#000000;isolation:auto;mix-blend-mode:normal;shape-rendering:auto;solid-color:#000000;block-progression:tb;text-decoration-line:none;image-rendering:auto;white-space:normal;text-indent:0;text-transform:none;text-decoration-style:solid" d="m228.04 861.73c-7.781-0.17975-15.812 0.99767-23.754 3.6914-21.96 7.4485-36.096 25.155-40.41 44.586-4.3142 19.431-0.38495 40.276 9.0293 59.107 4.3029 8.6071 9.9849 16.834 16.742 24.305-11.585 3.6324-24.827 6.1975-40.506 7.6406-29.059 2.6747-61.182-4.5072-95.436-13.234l-7.4062 29.072c34.645 8.8267 69.862 17.324 105.59 14.035 24.934-2.295 46.324-7.4677 64.729-15.887 20.383 11.434 45.37 16.323 72.896 9.4414 69.308-17.327 106.62-54.43 148.18-79.248l-15.383-25.756c-45.701 27.293-78.109 60.407-140.07 75.898-12.895 3.2237-24.66 3.0049-35.168 0.35742 0.76692-0.65414 1.5936-1.2308 2.3457-1.9043 36.898-33.042 45.814-70.895 32.816-98.285-9.7486-20.542-30.849-33.281-54.191-33.82zm-0.5 29.77c12.798 0.067 22.844 6.9233 27.584 16.912 6.3204 13.318 4.9407 35.616-25.725 63.076-3.4663 3.104-7.2094 5.8758-11.113 8.4883-7.6938-6.9348-14.038-15.248-18.551-24.275-6.849-13.7-8.989-28.323-6.5762-39.189 2.4128-10.867 7.8007-18.284 20.76-22.68 4.7828-1.6222 9.3551-2.3544 13.621-2.332z"/>
  <path id="path6679" d="m405.79 946.09-12.062 46.882 86.932-90.705-122.7 32.001 47.833 11.823z" stroke-width="0"/>
 </g>
</svg>
