<?xml version="1.0" encoding="UTF-8" standalone="no"?>
<!-- Created with Inkscape (http://www.inkscape.org/) -->
<svg id="svg2" xmlns:rdf="http://www.w3.org/1999/02/22-rdf-syntax-ns#" xmlns="http://www.w3.org/2000/svg" height="500" width="500" version="1.1" xmlns:cc="http://creativecommons.org/ns#" xmlns:dc="http://purl.org/dc/elements/1.1/" viewBox="0 0 499.99999 499.99998">
 <metadata id="metadata7">
  <rdf:RDF>
   <cc:Work rdf:about="">
    <dc:format>image/svg+xml</dc:format>
    <dc:type rdf:resource="http://purl.org/dc/dcmitype/StillImage"/>
    <dc:title/>
   </cc:Work>
  </rdf:RDF>
 </metadata>
 <g id="layer1" fill-rule="evenodd" transform="translate(0 -552.36)" fill="#000000">
  <path id="path5138" style="color-rendering:auto;text-decoration-color:#000000;color:#000000;isolation:auto;mix-blend-mode:normal;shape-rendering:auto;solid-color:#000000;block-progression:tb;text-decoration-line:none;image-rendering:auto;white-space:normal;text-indent:0;text-transform:none;text-decoration-style:solid" d="m390.08 607.21-340.47 44.99 4.224 31.95 340.47-44.98-4.22-31.96z"/>
  <path id="path5128" d="m360.76 626.45-33.04 43.04 128.24-55.6-138.3-20.44 43.1 33z" stroke-width="0"/>
  <path id="path5140" style="color-rendering:auto;text-decoration-color:#000000;color:#000000;isolation:auto;mix-blend-mode:normal;shape-rendering:auto;solid-color:#000000;block-progression:tb;text-decoration-line:none;image-rendering:auto;white-space:normal;text-indent:0;text-transform:none;text-decoration-style:solid" d="m55.775 751.99-5.5586 31.754 338.28 59.225 5.5586-31.754-338.28-59.225z"/>
  <path id="path5120" d="m356.4 821.71-40.543 37.027 126.8-17.382-114.72-72.39 28.462 52.744z" stroke-width="0"/>
  <path id="path5142" style="color-rendering:auto;text-decoration-color:#000000;color:#000000;isolation:auto;mix-blend-mode:normal;shape-rendering:auto;solid-color:#000000;block-progression:tb;text-decoration-line:none;image-rendering:auto;white-space:normal;text-indent:0;text-transform:none;text-decoration-style:solid" d="m52.047 929.2-2.6934 32.123 342.22 28.705 2.6934-32.125-342.22-28.703z"/>
  <path id="path5106" d="m358.35 969.94-38.79 37.296 128.26-28.759-122.26-52.661 32.786 44.125z" stroke-width="0"/>
 </g>
</svg>
