<?xml version="1.0" encoding="UTF-8" standalone="no"?>
<!-- Created with Inkscape (http://www.inkscape.org/) -->
<svg id="svg2" xmlns:rdf="http://www.w3.org/1999/02/22-rdf-syntax-ns#" xmlns="http://www.w3.org/2000/svg" height="500" width="500" version="1.1" xmlns:cc="http://creativecommons.org/ns#" xmlns:dc="http://purl.org/dc/elements/1.1/" viewBox="0 0 499.99999 499.99998">
 <metadata id="metadata7">
  <rdf:RDF>
   <cc:Work rdf:about="">
    <dc:format>image/svg+xml</dc:format>
    <dc:type rdf:resource="http://purl.org/dc/dcmitype/StillImage"/>
    <dc:title/>
   </cc:Work>
  </rdf:RDF>
 </metadata>
 <g id="layer1" fill-rule="evenodd" transform="translate(0 -552.36)" fill="#000000">
  <path id="path13784" style="color-rendering:auto;text-decoration-color:#000000;color:#000000;isolation:auto;mix-blend-mode:normal;shape-rendering:auto;solid-color:#000000;block-progression:tb;text-decoration-line:none;image-rendering:auto;white-space:normal;text-indent:0;text-transform:none;text-decoration-style:solid" d="m225.96 627.16c-27.688 1.5452-55.166 15.231-70.492 45.158-11.87 23.177-20.102 34.471-21.232 50.686-0.56519 8.1075 1.9928 16.384 5.8691 23.08 3.8764 6.6958 8.8358 12.726 15.246 20.488l0.5625 0.67774 0.63086 0.61328c15.579 15.122 35.039 19.959 51.357 16.654 16.319-3.3051 29.545-11.987 42.361-19.719 12.817-7.7322 25.071-14.723 36.754-17.529 11.123-2.672 21.602-2.4067 35.418 4.8301 17.165 18.923 18.279 53.378 6.6387 88.51-11.961 36.099-37.66 69.873-58.434 80.26-5.2204 2.6102-15.17 4.1211-26.479 4.1602 5.7435-3.2534 11.663-5.8161 18.029-9.0449 7.2102-3.6566 15.992-9.0246 21.053-19.109 5.0605-10.085 5.0848-21.936 2.1133-35.766-4.8718-22.674-19.457-39.31-36.797-47.984-17.34-8.6742-37.028-10.361-55.26-6.9492-18.232 3.412-35.513 11.954-47.082 26.619s-15.646 36.18-7.6523 57.496c2.045 5.4534 5.3972 15.855 10.523 26.135 5.1263 10.28 11.721 21.922 25.789 27.549 13.525 5.41 32.352 10.17 52.156 12.242 19.804 2.0724 40.32 2.0735 57.916-6.7246 33.887-16.944 60.387-56.228 74.498-98.818 4.779-14.424 7.9156-29.556 9.002-44.496 0.5782 1.8893 1.1958 3.7058 1.7637 5.6113 17.821 59.798 30.615 127.21 37.078 173.01l31.686-4.4707c-6.6691-47.26-19.599-115.61-38.096-177.68-9.2485-31.034-19.858-60.476-32.078-85.18s-25.619-44.987-43.666-57.178c-24.873-16.802-55.899-30.961-87.332-33.064-3.9292-0.2629-7.8903-0.28911-11.846-0.0684zm1.4219 31.781c2.669-0.0539 5.4306 0.0237 8.2871 0.21485 22.852 1.5291 50.252 13.263 71.557 27.654 8.3178 5.6186 18.435 18.536 28.084 36.01-19.633-9.5816-39.128-10.661-55.766-6.6641-18.013 4.327-32.861 13.432-45.811 21.244-12.95 7.8124-24.153 14.127-32.186 15.754-7.8844 1.5969-12.721 1.2306-22.23-7.8418-5.7691-7.0183-9.7319-12.174-11.52-15.262-1.873-3.2353-1.7374-3.434-1.6406-4.8223 0.19356-2.7766 5.6207-14.556 17.793-38.324 10.594-20.686 24.749-27.585 43.432-27.963zm-19.029 177.69c9.2369-0.31742 18.483 1.4115 25.891 5.1172 9.8768 4.9409 16.892 12.42 19.828 26.086 2.1731 10.114 1.0566 13.722 0.57031 14.691-0.48631 0.96914-1.6575 2.2511-6.9238 4.9219-9.4987 4.8172-28.875 11.952-45.539 31.658-5.9679-1.5693-11.419-3.2389-15.416-4.8379-0.58882-0.23553-5.3373-4.6996-9.0371-12.119-3.6998-7.4196-6.6552-16.311-9.1973-23.09-4.7139-12.57-2.5775-19.609 2.8125-26.441 5.39-6.8327 15.811-12.732 27.846-14.984 3.0087-0.56305 6.087-0.89615 9.166-1.002z"/>
  <path id="path7443" d="m416.16 945.49-47.684-27.93 62.427 109.23 21.149-118.4-35.891 37.107z" stroke-width="0"/>
  <path id="path13786" style="color-rendering:auto;text-decoration-color:#000000;color:#000000;isolation:auto;mix-blend-mode:normal;shape-rendering:auto;solid-color:#000000;block-progression:tb;text-decoration-line:none;image-rendering:auto;white-space:normal;text-indent:0;text-transform:none;text-decoration-style:solid" d="m378.75 605.14-31.648 4.7305c-0.22628-1.5142-0.59283 6.3844-3.7363 16.018-3.1435 9.6332-8.2028 22.154-14.617 36.139-12.829 27.969-31.082 61.93-50.578 93.373s-40.461 60.525-57.611 78.271c-8.5753 8.8731-16.414 14.751-20.666 16.697-1.4016 0.64158-1.4402 0.55099-1.7734 0.61133-5.1396-5.2988-21.03-23.263-37.533-40.037-8.5693-8.7102-17.328-17.13-25.602-23.811-4.1368-3.3403-8.1244-6.2556-12.34-8.6465-4.2154-2.3908-8.4747-4.7676-15.572-4.7676-8.541 0-16.858 4.0113-22.086 9.2441-5.2275 5.2328-8.1484 11.138-10.383 16.885-4.4689 11.494-6.294 23.397-8.3066 31.447-8.9244 35.698-3.0362 63.622 13.609 81.322 16.646 17.701 39.926 24.194 62.121 28.564 22.195 4.3702 44.393 6.518 59.314 10.705 7.4609 2.0936 12.829 4.7077 15.49 6.916 2.6616 2.2083 3.3027 3.1394 3.5859 6.8809 0.49447 6.5328 0.25891 6.1436-5.7148 9.1699-5.9738 3.0263-18.335 5.4733-33.301 6.2871-29.931 1.6276-69.398-1.9994-101.22 1.2598l3.2598 31.834c26.362-2.7002 65.986 0.6924 99.695-1.1406 16.854-0.9166 32.45-2.8182 46.025-9.6954 13.575-6.8771 24.48-22.722 23.162-40.131-0.88834-11.736-6.9747-22.383-15.061-29.092-8.0858-6.7088-17.486-10.351-27.279-13.1-19.587-5.4963-41.845-7.3668-61.775-11.291s-36.446-10.002-44.992-19.09c-8.5463-9.088-13.246-22.17-5.8789-51.639 2.521-10.084 4.4843-20.91 7.0898-27.611 0.99881-2.5688 1.9452-4.0936 2.5996-5.0039 1.8434 1.061 4.6382 2.9932 7.8516 5.5879 6.567 5.3026 14.778 13.107 22.895 21.357 16.234 16.501 31.415 34.007 38.795 41.387 4.85 4.85 11.904 8.0278 18.58 8.457 6.676 0.42918 12.659-1.291 18.061-3.7637 10.804-4.9454 20.302-13.152 30.357-23.557 20.111-20.81 41.583-51.048 61.797-83.648s38.944-67.407 52.469-96.893c6.7623-14.743 12.221-28.122 15.951-39.555 3.7306-11.433 6.5951-19.765 4.9648-30.674z"/>
  <path id="path7435" d="m116.93 994.68 31.09-43.45-117.69 53.57 124.78 25.3-38.18-35.42z" stroke-width="0"/>
  <path id="path13788" style="color-rendering:auto;text-decoration-color:#000000;color:#000000;isolation:auto;mix-blend-mode:normal;shape-rendering:auto;solid-color:#000000;block-progression:tb;text-decoration-line:none;image-rendering:auto;white-space:normal;text-indent:0;text-transform:none;text-decoration-style:solid" d="m297.81 580.82c-15.388 0.31635-31.396 1.5994-47.643 3.5137-64.985 7.6569-133.81 25.732-175.62 36.92l8.2715 30.912c41.624-11.137 109.34-28.775 171.09-36.051 30.875-3.6378 60.254-4.6017 83.318-1.3223s38.557 10.727 45.809 20.697c18.425 25.335 20.939 60.368 15.873 90.605-2.533 15.119-6.9152 28.86-11.389 38.721-4.4735 9.8604-11.728 15.595-7.791 13.627-22.803 11.402-41.136 11.064-60.617 4.7656-19.481-6.2979-39.614-19.61-60.512-34.666-20.897-15.056-42.498-31.739-66.705-43.43-24.207-11.69-51.923-18.14-81.631-10.713-13.033 3.2583-23.697 11.243-29.229 21.402-5.5317 10.16-6.2572 21.205-5 31.289 2.5144 20.167 11.918 38.06 23.764 49.906 14.768 14.768 35.059 17.993 54.17 20.445 19.111 2.4525 38.298 3.2119 47.951 5.1426 27.988 5.5976 40.253 20.385 50.145 43.637 9.8915 23.252 14.681 54.401 22.322 84.967 2.3879 9.5514 3.436 24.47 5.8379 39.498s5.7369 31.475 19.021 43.527l21.5-23.701c-3.1329-2.8422-6.8703-12.041-8.9219-24.877s-2.8395-27.997-6.3926-42.209c-7.098-28.392-11.624-60.827-23.92-89.73s-35.087-54.844-73.316-62.49c-14.887-2.9774-33.177-3.3252-50.154-5.5039s-31.39-7.1068-35.615-11.332c-4.9449-4.9449-13.251-20.126-14.637-31.238-0.69276-5.5563 0.0846-9.704 1.3496-12.027 1.265-2.3233 2.6922-4.112 8.8848-5.6602 21.232-5.3079 39.919-1.192 59.955 8.4844 20.036 9.6763 40.518 25.161 61.914 40.576s43.767 30.874 69.375 39.152c25.608 8.2787 54.944 8.3217 84.771-6.5918 12.937-6.4685 16.824-16.252 22.621-29.029 5.7969-12.777 10.816-28.793 13.809-46.652 5.9844-35.718 4.0424-79.521-21.553-114.71-14.856-20.427-39.649-29.641-67.186-33.557-13.768-1.9577-28.536-2.6093-43.924-2.293z"/>
  <path id="path7421" d="m102.33 631.04 21.66-54.549-95.589 83.335 111.41 2.7333-37.484-31.52z" stroke-width="0"/>
 </g>
</svg>
